<svg width="20" height="20" viewBox="0 0 20 20" fill="none" xmlns="http://www.w3.org/2000/svg">
<g clip-path="url(#clip0_2343_170)">
<path d="M10.7854 10.0488L19.8084 1.02585C20.0118 0.822461 20.0118 0.492708 19.8084 0.289323C19.6049 0.0859375 19.2752 0.0859375 19.0718 0.289323L10.0488 9.31224L1.02583 0.289258C0.822448 0.0858724 0.492696 0.0858724 0.289311 0.289258C0.0858602 0.492643 0.0858602 0.822396 0.289311 1.02578L9.31223 10.0488L0.289246 19.0718C0.0857951 19.2753 0.0857951 19.6049 0.289246 19.8084C0.390938 19.9101 0.524206 19.9609 0.65754 19.9609C0.790873 19.9609 0.924141 19.9101 1.02583 19.8084L10.0488 10.7854L19.0718 19.8084C19.1736 19.9101 19.3068 19.9609 19.4401 19.9609C19.5734 19.9609 19.7067 19.9101 19.8084 19.8084C20.0118 19.6049 20.0118 19.2753 19.8084 19.0718L10.7854 10.0488Z" fill="#8A8A8A"/>
</g>
<defs>
<clipPath id="clip0_2343_170">
<rect width="20" height="20" fill="white"/>
</clipPath>
</defs>
</svg>
