<svg width="15" height="16" viewBox="0 0 15 16" fill="none" xmlns="http://www.w3.org/2000/svg">
<path d="M14.9325 12.4558L14.8579 12.2309C14.681 11.7053 14.1014 11.1571 13.569 11.0127L11.5983 10.4744C11.0639 10.329 10.3015 10.5245 9.91054 10.9155L9.19732 11.6287C6.6053 10.9283 4.57276 8.89567 3.8733 6.30416L4.58656 5.5909C4.97757 5.1999 5.17304 4.43858 5.02764 3.90416L4.49027 1.93251C4.34488 1.39907 3.79572 0.819477 3.27114 0.644597L3.04618 0.568961C2.5206 0.394081 1.77104 0.570942 1.38006 0.961914L0.313179 2.02977C0.122581 2.21936 0.000765536 2.76164 0.000765536 2.76362C-0.0365493 6.15088 1.29163 9.41434 3.68764 11.8104C6.07777 14.2005 9.32901 15.5267 12.7064 15.4983C12.7241 15.4983 13.2821 15.3784 13.4727 15.1888L14.5396 14.1219C14.9305 13.7309 15.1074 12.9814 14.9325 12.4558Z" fill="white"/>
</svg>
