<svg width="34" height="36" viewBox="0 0 34 36" fill="none" xmlns="http://www.w3.org/2000/svg">
<g clip-path="url(#clip0_2019_188)">
<path d="M31.0475 33.413H0.936978C0.622858 33.413 0.329501 33.2376 0.156076 32.9462C-0.0175931 32.6546 -0.04837 32.2855 0.0740047 31.9633C1.34563 28.615 1.93747 25.8717 1.936 23.3304C1.93527 21.6885 1.68686 19.9652 1.17635 18.062C1.09233 17.7491 1.14509 17.4103 1.31851 17.1467C1.49194 16.8832 1.76624 16.7254 2.0596 16.7202L30.0333 16.2339C30.3296 16.2312 30.6115 16.3802 30.792 16.6426C30.9722 16.9049 31.0306 17.2469 30.9488 17.5644C30.5331 19.1797 30.0477 21.659 30.0485 23.3292C30.0497 25.8781 30.6413 28.6216 31.9107 31.9633C32.0331 32.2855 32.0023 32.6546 31.8286 32.946C31.655 33.2376 31.3616 33.413 31.0475 33.413Z" fill="#EEF0F4"/>
<path d="M31.9104 31.9633C30.6412 28.6218 30.0496 25.8783 30.0484 23.3292C30.0474 21.659 30.5328 19.1797 30.9488 17.5644C31.0306 17.2469 30.9722 16.9049 30.7917 16.6426C30.6112 16.3805 30.3296 16.2312 30.0333 16.2339L15.9922 16.4782V33.413H31.0474C31.3616 33.413 31.6549 33.2376 31.8283 32.9462C32.002 32.6546 32.0328 32.2855 31.9104 31.9633Z" fill="#E4E7ED"/>
<path d="M16 11C15.4476 11 15 10.3981 15 9.65611V2.34389C15 1.60188 15.4476 1 16 1C16.5524 1 17 1.60188 17 2.34389V9.65611C17.0003 10.3981 16.5524 11 16 11Z" fill="#4F5D78"/>
<path d="M16 1V11C16.5522 10.9993 17 10.3978 17 9.65611V2.34389C17 1.60188 16.5522 1.0007 16 1Z" fill="#0A1C40"/>
<path d="M16.0051 7.19067C15.8464 7.18799 4.97651 17.0263 5.40543 17.0263L16.2838 17.2159L16.0051 7.19067Z" fill="#B17924"/>
<path fill-rule="evenodd" clip-rule="evenodd" d="M15.9922 16.3121L23.9883 16.2342L15.9934 7.18994L15.9922 16.3121Z" fill="#278397"/>
<path fill-rule="evenodd" clip-rule="evenodd" d="M15.9922 7.19019L15.991 7.18994L15.8566 7.20044C15.7484 7.21583 15.6419 7.24954 15.543 7.30303L0.490912 15.4552C0.113773 15.6594 -0.0765055 16.0935 0.0287708 16.5092C0.134291 16.9249 0.508254 17.2161 0.937176 17.2161H5.70197L7.99606 16.2342L15.9922 7.19019Z" fill="#278397"/>
<path fill-rule="evenodd" clip-rule="evenodd" d="M15.9922 7.19019L15.9934 7.18994L16.128 7.20044C16.2362 7.21583 16.3425 7.24954 16.4414 7.30303L31.4935 15.4552C31.8706 15.6594 32.0609 16.0935 31.9556 16.5092C31.8503 16.9249 31.4761 17.2161 31.0472 17.2161H26.2824L23.9883 16.2342L15.9922 7.19019Z" fill="#8E9CB8"/>
<path d="M8.02176 16.6167L2.0596 16.7205C1.76624 16.7256 1.49194 16.8832 1.31851 17.1467C1.14509 17.4103 1.09233 17.7491 1.17635 18.062C1.68686 19.9653 1.93527 21.6885 1.936 23.3304C1.93747 25.8717 1.34563 28.615 0.0740047 31.9636C-0.04837 32.2858 -0.0175931 32.6546 0.156076 32.9463C0.329746 33.2377 0.622858 33.413 0.937222 33.413H2.77602C4.17685 31.4963 5.40988 29.1228 6.31853 26.5686C7.50148 23.2425 8.08966 19.8031 8.02176 16.6167Z" fill="#F49D19"/>
<path d="M23.9785 16.6167L29.9404 16.7205C30.2337 16.7256 30.508 16.8832 30.6817 17.1467C30.8551 17.4103 30.9076 17.7491 30.8239 18.062C30.3134 19.9653 30.0649 21.6885 30.064 23.3304C30.0627 25.8717 30.6543 28.615 31.926 31.9636C32.0486 32.2858 32.0176 32.6546 31.8441 32.9463C31.6705 33.2379 31.3771 33.413 31.063 33.413H29.2242C27.8231 31.4966 26.5903 29.1228 25.6817 26.5686C24.4987 23.2425 23.9103 19.8031 23.9785 16.6167Z" fill="#B17924"/>
<path d="M24.2158 33.4444C19.9029 31.4298 17.6196 24.4407 16.9283 18.9368C16.8582 18.3777 16.8274 17.896 16.8274 17.896C16.8274 17.3914 16.4398 16.395 15.9359 16.3713C15.3978 16.3459 14.9535 17.3371 14.9535 17.8696C14.9535 17.8696 14.8897 18.5284 14.7603 19.2985C13.5932 26.2463 10.6865 32.2436 7.76904 33.4444H24.2158Z" fill="#4F5D78"/>
<path fill-rule="evenodd" clip-rule="evenodd" d="M15.9922 16.2339V16.3499C15.9922 18.549 14.193 20.348 11.9942 20.348C9.79507 20.348 7.99609 18.549 7.99609 16.3499V16.2339H15.9922Z" fill="#F49D19"/>
<path d="M15.9922 33.4444H24.2157C19.9028 31.4298 17.6195 24.4407 16.9282 18.9368C16.8581 18.3777 16.8273 17.896 16.8273 17.896C16.8273 17.4107 16.4685 16.4703 15.9922 16.3787V33.4444Z" fill="#0A1C40"/>
<path fill-rule="evenodd" clip-rule="evenodd" d="M23.9883 16.2339V16.3499C23.9883 18.549 22.1893 20.348 19.9902 20.348C17.7914 20.348 15.9922 18.549 15.9922 16.3499V16.2339H23.9883Z" fill="#38B5D0"/>
<path fill-rule="evenodd" clip-rule="evenodd" d="M1.09062 19.0871C0.415243 18.3704 0 17.4063 0 16.3499V16.2339H7.99612V16.3499C7.99612 18.549 6.19714 20.348 3.99806 20.348C2.85565 20.348 1.82096 19.8624 1.09062 19.0871Z" fill="#38B5D0"/>
<path fill-rule="evenodd" clip-rule="evenodd" d="M31.9844 16.2339V16.3499C31.9844 18.549 30.1854 20.348 27.9863 20.348C25.7875 20.348 23.9883 18.549 23.9883 16.3499V16.2339H31.9844Z" fill="#BCC5D6"/>
<path d="M17.8516 5.99019C15.8516 6.99019 15.2103 6.72435 14.2103 6.72435C15.2969 4.28693 12.0664 3.7292 14.4157 0.557373C15.4142 2.00013 16 2.00013 18 2.00013C20.2361 2.00013 21.5224 -0.088676 26 2.00013C23.1376 1.76141 21.0527 2.52516 20.2892 3.61172C21.8456 3.84665 24.0775 4.25779 26 6.50013C22.6385 5.10941 18.9088 5.46159 17.8516 5.99019Z" fill="#D53333"/>
</g>
<defs>
<clipPath id="clip0_2019_188">
<rect width="34" height="36" fill="white"/>
</clipPath>
</defs>
</svg>
